<?xml version="1.0" standalone="no"?>
<!DOCTYPE svg PUBLIC "-//W3C//DTD SVG 20010904//EN"
 "http://www.w3.org/TR/2001/REC-SVG-20010904/DTD/svg10.dtd">
<svg version="1.0" xmlns="http://www.w3.org/2000/svg"
 width="700.000000pt" height="700.000000pt" viewBox="0 0 700.000000 700.000000"
 preserveAspectRatio="xMidYMid meet">
<metadata>
Created by potrace 1.14, written by Peter Selinger 2001-2017
</metadata>
<g transform="translate(0.000000,700.000000) scale(0.100000,-0.100000)"
fill="#000000" stroke="none">
<path d="M1760 5832 c-6 -2 -10 -109 -10 -292 l0 -288 116 -108 c64 -60 122
-113 128 -119 6 -5 72 -66 146 -135 131 -122 192 -178 256 -236 26 -24 146
-135 264 -244 15 -14 73 -68 130 -120 57 -52 115 -106 130 -120 15 -14 73 -68
130 -120 166 -153 242 -223 281 -260 21 -19 70 -65 111 -102 40 -36 102 -94
138 -127 l65 -61 -51 -48 c-28 -26 -92 -85 -143 -132 -51 -47 -110 -101 -130
-120 -20 -19 -84 -78 -141 -130 -57 -52 -119 -110 -138 -127 -19 -18 -82 -76
-141 -130 -58 -54 -140 -129 -181 -168 -64 -59 -133 -124 -320 -295 -22 -20
-201 -186 -270 -250 -9 -8 -43 -40 -76 -69 -58 -54 -151 -140 -252 -234 l-52
-48 0 -289 c0 -222 3 -289 13 -292 6 -2 793 -3 1747 -3 l1735 1 3 437 2 437
-22 1 c-13 0 -486 1 -1052 1 l-1029 1 84 79 c81 77 129 122 269 252 36 33 99
92 140 131 100 93 306 284 350 325 19 18 89 82 154 144 66 61 124 116 130 121
20 18 270 249 292 270 11 11 49 46 84 79 34 32 58 61 52 65 -5 3 -72 65 -148
136 -76 72 -172 161 -214 200 -100 92 -170 158 -255 237 -38 36 -86 81 -106
99 -20 19 -88 81 -150 139 -62 58 -145 135 -184 172 -39 37 -80 75 -91 85 -30
25 -232 213 -328 304 l-80 76 1050 0 1049 0 3 439 2 439 -1740 0 c-957 0
-1744 -1 -1750 -3z"/>
</g>
</svg>
